<svg width="15" height="15" viewBox="0 0 15 15" fill="none" xmlns="http://www.w3.org/2000/svg">
<path d="M7.12498 8.64211L1.8151 13.952C1.61643 14.1507 1.36358 14.25 1.05654 14.25C0.749509 14.25 0.496657 14.1507 0.297988 13.952C0.0993188 13.7533 -1.52588e-05 13.5005 -1.52588e-05 13.1934C-1.52588e-05 12.8864 0.0993188 12.6335 0.297988 12.4349L5.60787 7.125L0.297988 1.81512C0.0993188 1.61645 -1.52588e-05 1.3636 -1.52588e-05 1.05656C-1.52588e-05 0.749528 0.0993188 0.496676 0.297988 0.298007C0.496657 0.0993379 0.749509 3.8147e-06 1.05654 3.8147e-06C1.36358 3.8147e-06 1.61643 0.0993379 1.8151 0.298007L7.12498 5.60789L12.4349 0.298007C12.6335 0.0993379 12.8864 3.8147e-06 13.1934 3.8147e-06C13.5004 3.8147e-06 13.7533 0.0993379 13.952 0.298007C14.1506 0.496676 14.25 0.749528 14.25 1.05656C14.25 1.3636 14.1506 1.61645 13.952 1.81512L8.64209 7.125L13.952 12.4349C14.1506 12.6335 14.25 12.8864 14.25 13.1934C14.25 13.5005 14.1506 13.7533 13.952 13.952C13.7533 14.1507 13.5004 14.25 13.1934 14.25C12.8864 14.25 12.6335 14.1507 12.4349 13.952L7.12498 8.64211Z" fill="black"/>
</svg>
