<svg width="16" height="20" viewBox="0 0 16 20" fill="none" xmlns="http://www.w3.org/2000/svg">
<path fill-rule="evenodd" clip-rule="evenodd" d="M0.917375 11.4893V11.3068C0.944146 10.7669 1.11719 10.2437 1.41865 9.79133C1.92044 9.24787 2.26394 8.58191 2.41312 7.8633C2.41312 7.30791 2.41312 6.74458 2.46163 6.18918C2.71226 3.51534 5.35609 1.66666 7.96757 1.66666H8.03225C10.6437 1.66666 13.2876 3.51534 13.5463 6.18918C13.5948 6.74458 13.5463 7.30791 13.5867 7.8633C13.7379 8.58358 14.081 9.25161 14.5812 9.79926C14.8849 10.2477 15.0582 10.7689 15.0824 11.3068V11.4813C15.1005 12.2067 14.8507 12.914 14.379 13.4728C13.7558 14.1262 12.9101 14.5327 12.002 14.6153C9.33918 14.901 6.65255 14.901 3.98971 14.6153C3.08264 14.5291 2.23815 14.1232 1.61269 13.4728C1.14835 12.9136 0.901888 12.2105 0.917375 11.4893Z" stroke="#303E65" stroke-width="1.5" stroke-linecap="round" stroke-linejoin="round"/>
<path d="M5.96246 17.3765C6.37853 17.8987 6.98951 18.2367 7.66021 18.3156C8.3309 18.3945 9.00599 18.2079 9.53607 17.797C9.6991 17.6755 9.8458 17.5342 9.97266 17.3765" stroke="#303E65" stroke-width="1.5" stroke-linecap="round" stroke-linejoin="round"/>
</svg>
