<svg width="26" height="26" viewBox="0 0 26 26" fill="none" xmlns="http://www.w3.org/2000/svg">
<path d="M9.5625 25.5L9.0625 21.5C8.79167 21.3958 8.53667 21.2708 8.2975 21.125C8.0575 20.9792 7.82292 20.8229 7.59375 20.6562L3.875 22.2188L0.4375 16.2812L3.65625 13.8438C3.63542 13.6979 3.625 13.5571 3.625 13.4212V12.5775C3.625 12.4425 3.63542 12.3021 3.65625 12.1562L0.4375 9.71875L3.875 3.78125L7.59375 5.34375C7.82292 5.17708 8.0625 5.02083 8.3125 4.875C8.5625 4.72917 8.8125 4.60417 9.0625 4.5L9.5625 0.5H16.4375L16.9375 4.5C17.2083 4.60417 17.4637 4.72917 17.7038 4.875C17.9429 5.02083 18.1771 5.17708 18.4063 5.34375L22.125 3.78125L25.5625 9.71875L22.3438 12.1562C22.3646 12.3021 22.375 12.4425 22.375 12.5775V13.4212C22.375 13.5571 22.3542 13.6979 22.3125 13.8438L25.5312 16.2812L22.0937 22.2188L18.4063 20.6562C18.1771 20.8229 17.9375 20.9792 17.6875 21.125C17.4375 21.2708 17.1875 21.3958 16.9375 21.5L16.4375 25.5H9.5625ZM13.0625 17.375C14.2708 17.375 15.3021 16.9479 16.1562 16.0938C17.0104 15.2396 17.4375 14.2083 17.4375 13C17.4375 11.7917 17.0104 10.7604 16.1562 9.90625C15.3021 9.05208 14.2708 8.625 13.0625 8.625C11.8333 8.625 10.7967 9.05208 9.9525 9.90625C9.10917 10.7604 8.6875 11.7917 8.6875 13C8.6875 14.2083 9.10917 15.2396 9.9525 16.0938C10.7967 16.9479 11.8333 17.375 13.0625 17.375Z" fill="white"/>
</svg>
